<svg width="47" height="49" viewBox="0 0 47 49" fill="none" xmlns="http://www.w3.org/2000/svg">
<path d="M23.3864 48.002L3.21724 13.0679L43.5556 13.0679L23.3864 48.002Z" fill="#2C087E"/>
<path d="M23.3864 48.002L3.21724 13.0679L43.5556 13.0679L23.3864 48.002Z" fill="url(#paint0_linear)"/>
<path d="M23.3864 48.002L3.21724 13.0679L43.5556 13.0679L23.3864 48.002Z" fill="url(#paint1_linear)"/>
<path opacity="0.9" d="M23.3864 29.125L3.21723 13.066L43.5556 13.066L23.3864 29.125Z" fill="url(#paint2_linear)"/>
<path d="M23.3896 48.0024V29.1781V29.1274L3.24609 13.0938L23.3896 48.0024Z" fill="url(#paint3_linear)"/>
<path d="M23.2888 22.123L3.11958 5.53127L43.4579 5.53127L23.2888 22.123Z" fill="url(#paint4_linear)"/>
<defs>
<linearGradient id="paint0_linear" x1="43.1976" y1="25.2019" x2="23.4372" y2="29.3299" gradientUnits="userSpaceOnUse">
<stop stop-color="#2C087E"/>
<stop offset="1" stop-color="#D1BDFF" stop-opacity="0"/>
</linearGradient>
<linearGradient id="paint1_linear" x1="23.4372" y1="28.7717" x2="52.663" y2="23.7485" gradientUnits="userSpaceOnUse">
<stop stop-color="#5418B9"/>
<stop offset="1" stop-color="#7B61FF"/>
</linearGradient>
<linearGradient id="paint2_linear" x1="23.3864" y1="29.125" x2="23.3864" y2="7.71299" gradientUnits="userSpaceOnUse">
<stop stop-color="#301C53" stop-opacity="0"/>
<stop offset="0.30741" stop-color="#272033" stop-opacity="0.30741"/>
<stop offset="1" stop-color="#2B1A49"/>
</linearGradient>
<linearGradient id="paint3_linear" x1="13.2925" y1="33.0851" x2="23.3389" y2="28.417" gradientUnits="userSpaceOnUse">
<stop stop-color="#422B74"/>
<stop offset="1" stop-color="#5633A2"/>
</linearGradient>
<linearGradient id="paint4_linear" x1="23.2888" y1="22.123" x2="23.2888" y2="0.000678887" gradientUnits="userSpaceOnUse">
<stop stop-color="#6C29DF"/>
<stop offset="1" stop-color="#3F3E78"/>
</linearGradient>
</defs>
</svg>
